<svg width="631" height="631" viewBox="0 0 631 631" fill="none" xmlns="http://www.w3.org/2000/svg">
<g clip-path="url(#clip0)">
<path d="M424.104 411.062L416.925 413.958C393.553 423.382 368.544 428.082 343.345 427.78L342.86 427.774C337.872 427.713 335.472 421.637 339.07 418.185L339.081 418.176C355.777 402.168 367.439 381.636 372.639 359.095L381.759 319.579C388.229 291.568 411.979 270.887 440.618 268.344L440.63 268.344C469.207 271.574 492.46 292.824 498.25 320.99L506.408 360.681C511.065 383.35 522.236 404.162 538.546 420.575C542.061 424.109 539.516 430.129 534.531 430.069C534.302 430.066 534.067 430.065 533.829 430.062C508.944 429.764 484.349 424.595 461.45 414.847L453.384 411.412L424.104 411.062Z" fill="#1376FC"/>
<path d="M471.381 350.092C471.006 381.479 458.692 404.553 438.732 425.722C419.286 404.08 407.526 380.721 407.902 349.33C408.277 317.943 420.658 289.514 440.618 268.344C460.064 289.987 471.761 318.702 471.381 350.092Z" fill="#074393"/>
<path d="M149.732 426.903L154.351 433.108C169.399 453.325 188.31 470.355 209.979 483.214L210.399 483.466C214.685 486.01 219.902 482.069 218.624 477.248L218.62 477.234C212.702 454.876 213.433 431.274 220.723 409.325L233.507 370.837C242.571 343.55 233.054 313.532 209.93 296.449L209.915 296.445C183.834 284.326 152.919 290.36 133.312 311.398L105.688 341.041C89.912 357.968 69.5392 369.923 47.0653 375.444C42.2247 376.632 41.2638 383.096 45.5542 385.641C45.7513 385.761 45.9531 385.879 46.154 386C67.5602 398.701 91.2464 407.09 115.876 410.69L124.546 411.958L149.732 426.903Z" fill="#1376FC"/>
<path d="M141.103 350.229C125.084 377.223 123.587 403.335 129.607 431.804C157.477 423.449 179.683 409.624 195.699 382.629C211.719 355.631 215.951 324.915 209.93 296.449C182.056 304.803 157.123 323.236 141.103 350.229Z" fill="#074393"/>
<path d="M225.288 126.223C214.951 143.64 213.656 163.912 220.005 181.593C238.564 178.694 255.74 167.842 266.073 150.424C273.537 137.849 276.288 123.784 274.848 110.28C273.903 101.389 264.58 95.8554 256.319 99.2859C243.778 104.494 232.748 113.647 225.288 126.223Z" fill="#1376FC"/>
<path d="M545.625 413.537C530.643 398.465 520.461 379.493 516.184 358.672L508.027 318.981C501.903 289.179 478.987 266.25 449.801 259.783L450.252 258.177C459.477 225.327 440.257 191.097 407.407 181.872C391.849 177.503 375.987 179.524 362.613 186.341L378.249 130.659C387.474 97.809 368.254 63.5797 335.404 54.3548C306.465 46.2282 276.464 60.1844 263.425 86.0798C257.022 83.3461 250.071 82.269 243.041 82.9633C238.412 83.425 233.85 82.4111 229.848 80.036L225.77 77.6151C221.032 74.8026 214.905 76.362 212.091 81.1034C209.279 85.8411 210.843 91.9657 215.58 94.7782L219.661 97.2039C222.841 99.089 226.2 100.526 229.679 101.503C230.655 101.777 231.645 102.002 232.637 102.204C226.38 107.526 221.003 113.884 216.705 121.128C205.214 140.489 202.993 163.757 210.611 184.965C211.731 188.085 214.277 190.351 217.31 191.203C218.654 191.58 220.093 191.677 221.545 191.453C243.809 187.974 263.167 174.876 274.657 155.519C278.955 148.275 281.958 140.509 283.632 132.471C286.607 136.008 290.173 139.042 294.241 141.456L298.323 143.878C299.093 144.337 299.9 144.677 300.722 144.908C304.968 146.1 309.643 144.36 311.998 140.388C314.811 135.647 313.25 129.527 308.508 126.713L304.426 124.292C300.424 121.916 297.351 118.397 295.537 114.114C292.406 106.735 287.327 100.538 280.768 96.0482C289.328 77.8808 310.039 67.9649 330.008 73.5724C352.262 79.8218 365.281 103.008 359.032 125.262L319.217 267.041C311.347 254.258 298.856 244.275 283.298 239.906C250.448 230.681 216.219 249.901 206.994 282.751L206.543 284.357C178.254 274.693 146.758 282.333 126.011 304.59L98.3835 334.232C83.8942 349.779 65.3234 360.68 44.6854 365.749C38.5262 367.263 33.943 372.293 33.0112 378.568C32.0795 384.842 35.0024 390.987 40.4628 394.226L41.0599 394.58C63.7011 408.016 88.3855 416.758 114.428 420.564L117.633 421.031C118.181 425.222 118.917 429.495 119.84 433.864C120.417 436.598 122.114 438.961 124.513 440.384C125.269 440.835 126.076 441.175 126.906 441.408C128.711 441.915 130.64 441.91 132.47 441.363C136.782 440.067 140.917 438.653 144.889 437.112L146.345 439.068C162.263 460.452 181.958 478.192 204.888 491.799L205.301 492.044C206.502 492.758 207.765 493.291 209.06 493.655C213.662 494.947 218.664 494.064 222.612 491.079C227.674 487.256 229.893 480.825 228.266 474.679C222.833 454.141 223.496 432.63 230.195 412.466L242.979 373.979C252.269 346.002 244.677 315.731 224.143 295.512L226.211 288.148C232.461 265.894 255.647 252.874 277.901 259.124C300.152 265.372 313.175 288.56 306.925 310.814L299.451 337.429C297.961 342.737 301.054 348.246 306.362 349.736C311.665 351.226 317.178 348.133 318.669 342.826L350.32 230.114C356.57 207.86 379.756 194.841 402.01 201.09C424.261 207.338 437.284 230.526 431.034 252.78L428.966 260.144C400.904 266.72 378.664 288.61 372.032 317.333L362.911 356.85C358.134 377.553 347.504 396.269 332.16 410.98C327.582 415.372 326.129 422.018 328.461 427.917C330.278 432.521 334.088 435.883 338.69 437.175C339.988 437.54 341.346 437.739 342.742 437.755L343.219 437.759C369.876 438.077 395.931 433.185 420.655 423.213L422.916 422.301C425.505 425.685 428.295 429.044 431.306 432.396C432.584 433.816 434.227 434.828 436.032 435.335C436.862 435.568 437.729 435.694 438.61 435.702C441.399 435.736 444.078 434.602 445.992 432.572C449.056 429.318 451.909 426.054 454.559 422.76L457.539 424.031C481.759 434.339 507.386 439.725 533.712 440.04L534.409 440.049C540.75 440.125 546.445 436.399 548.915 430.561C551.39 424.716 550.095 418.036 545.625 413.537ZM257.493 145.333C250.569 156.995 239.761 165.562 227.076 169.677C224.607 156.568 226.95 142.976 233.872 131.318C240.001 120.984 249.088 113.097 260.145 108.504C260.992 108.154 261.757 108.199 262.347 108.365C262.714 108.468 263.017 108.618 263.231 108.747C263.798 109.08 264.769 109.863 264.925 111.34C266.194 123.245 263.622 135 257.493 145.333ZM59.7351 382.152C80.0343 375.348 98.2875 363.616 112.986 347.845L140.613 318.203C150.303 307.807 163.166 301.729 176.601 300.465C158.629 311.425 143.475 326.672 132.52 345.134C122.158 362.597 116.857 380.724 116.448 400.678C96.5246 397.667 77.4923 391.451 59.7351 382.152ZM137.438 418.611C134.229 394.653 138.143 374.772 149.688 355.321C161.865 334.8 180.169 318.964 201.96 309.878C204.424 333.36 199.297 357.01 187.119 377.535C175.574 396.986 160.001 409.948 137.438 418.611ZM224.037 367.688L211.253 406.175C204.46 426.629 202.912 448.251 206.663 469.329C190.012 458.182 175.469 444.444 163.308 428.395C180.59 418.48 193.935 405.159 204.283 387.721C215.236 369.265 221.36 348.669 222.375 327.65C227.685 340.034 228.511 354.22 224.037 367.688ZM382.363 361.34L391.483 321.824C394.678 307.997 402.765 296.314 413.749 288.505C403.674 306.98 398.177 327.753 397.921 349.212C397.677 369.488 402.138 387.809 411.731 405.271C392.997 412.644 373.43 416.799 353.41 417.648C367.578 401.615 377.518 382.341 382.363 361.34ZM438.917 410.383C424.163 391.24 417.609 372.068 417.882 349.452C418.169 325.588 426.1 302.725 440.428 283.958C454.307 303.061 461.689 326.106 461.405 349.971C461.132 372.587 454.125 391.6 438.917 410.383ZM466.174 405.998C476.209 388.751 481.119 370.514 481.363 350.21C481.62 328.743 476.62 307.833 466.982 289.115C477.795 297.189 485.612 309.079 488.474 322.998L496.631 362.69C500.973 383.812 510.447 403.33 524.236 419.707C504.234 418.403 484.748 413.801 466.174 405.998Z" fill="#E3E3E3"/>
<path d="M290.171 407.393C284.863 405.903 279.354 408.996 277.863 414.304L240.305 548.05C238.815 553.357 241.908 558.867 247.215 560.357C252.523 561.847 258.032 558.754 259.523 553.447L297.081 419.7C298.571 414.393 295.478 408.883 290.171 407.393Z" fill="#E3E3E3"/>
<path d="M301.088 368.993C298.554 368.281 295.796 368.616 293.503 369.9C291.215 371.185 289.49 373.377 288.781 375.903C288.071 378.429 288.403 381.199 289.688 383.487C290.977 385.777 293.157 387.499 295.691 388.21C298.221 388.921 300.987 388.588 303.275 387.303C305.564 386.018 307.289 383.826 307.998 381.3C308.708 378.774 308.376 376.004 307.091 373.716C305.806 371.427 303.618 369.703 301.088 368.993Z" fill="#E3E3E3"/>
</g>
<defs>
<clipPath id="clip0">
<rect width="511" height="511" fill="white" transform="translate(138.154) rotate(15.6857)"/>
</clipPath>
</defs>
</svg>
